<svg xmlns="http://www.w3.org/2000/svg" width="21" height="21" fill="none"><g clip-path="url(#a)"><path fill="#75AADB" d="M21 15.75a2.333 2.333 0 0 1-2.333 2.333H2.333A2.333 2.333 0 0 1 0 15.75V5.25a2.333 2.333 0 0 1 2.333-2.333h16.334A2.333 2.333 0 0 1 21 5.25v10.5Z"/><path fill="#EEE" d="M0 7.583h21v5.834H0V7.583Z"/><path fill="#FCBF49" d="m10.5 7.583.285 1.487.832-1.264-.307 1.481 1.252-.85-.85 1.253 1.483-.306-1.264.831 1.486.285-1.486.285 1.264.832-1.483-.307.85 1.252-1.252-.85.307 1.482-.832-1.264-.285 1.487-.284-1.487-.832 1.264.306-1.482-1.252.85.85-1.252-1.482.306 1.264-.831-1.487-.285 1.487-.285-1.264-.83 1.481.305-.85-1.253 1.253.85-.306-1.481.832 1.264.284-1.487Z"/><path fill="#843511" d="m10.5 8.36.141.737.068.353.198-.3.413-.627-.152.735-.073.352.297-.201.622-.422-.422.622-.202.297.352-.073.736-.151-.627.413-.3.196.352.068.738.141-.738.141-.353.068.3.198.628.413-.736-.153-.353-.073.202.298.422.621-.621-.422-.298-.201.073.352.152.736-.413-.628-.197-.3-.068.353-.14.738-.142-.738-.068-.353-.197.3-.413.628.151-.736.073-.352-.297.202-.622.422.422-.622.201-.298-.352.073-.736.153.628-.413.3-.198-.353-.068-.737-.141.738-.141.353-.068-.3-.198-.628-.413.736.152.351.073-.201-.297-.423-.622.622.422.298.202-.073-.352-.152-.735.413.627.198.3.067-.352.142-.739Zm0-.777-.284 1.487-.832-1.264.306 1.482-1.252-.85.85 1.252-1.482-.305 1.264.83-1.487.285 1.487.285-1.264.832 1.481-.307-.85 1.252 1.253-.85-.306 1.482.832-1.264.284 1.487.285-1.487.832 1.264-.307-1.482 1.252.85-.85-1.252 1.483.306-1.264-.831 1.486-.285-1.486-.285 1.264-.83-1.483.305.85-1.253-1.252.85.307-1.482-.832 1.264-.285-1.486Z"/><path fill="#FCBF49" d="M10.5 11.667a1.167 1.167 0 1 0 0-2.334 1.167 1.167 0 0 0 0 2.334Z"/><path fill="#843511" d="M10.5 11.74a1.24 1.24 0 0 1 0-2.48 1.24 1.24 0 0 1 0 2.48Zm0-2.334a1.095 1.095 0 0 0 0 2.188 1.095 1.095 0 0 0 0-2.188Z"/><path fill="#C16540" d="M10.384 10.368c0 .09-.152.163-.34.163-.189 0-.34-.072-.34-.163 0-.09.151-.163.34-.163.188 0 .34.073.34.163Zm.906-.014c0-.094-.155-.17-.347-.17-.191 0-.346.076-.346.17 0 .095.155.17.346.17.192 0 .347-.076.347-.17Z"/><path fill="#ED8662" d="M10.187 11.01c0-.074.143-.134.32-.134.176 0 .319.06.319.134 0 .073-.144.133-.32.133-.177 0-.32-.06-.32-.133Z"/></g><defs><clipPath id="a"><path fill="#fff" d="M0 0h21v21H0z"/></clipPath></defs></svg>