<svg width="28" height="30" viewBox="0 0 28 30" fill="none" xmlns="http://www.w3.org/2000/svg">
<path fill-rule="evenodd" clip-rule="evenodd" d="M6.00008 1.66666C6.00008 0.930288 6.59704 0.333328 7.33341 0.333328C8.06979 0.333328 8.66675 0.930288 8.66675 1.66666V2.99999H19.3334V1.66666C19.3334 0.930288 19.9303 0.333328 20.6667 0.333328C21.4031 0.333328 22.0001 0.930288 22.0001 1.66666V2.99999H23.3334C25.5426 2.99999 27.3334 4.79086 27.3334 7V25.6667C27.3334 27.8759 25.5426 29.6667 23.3334 29.6667H4.66675C2.45761 29.6667 0.666748 27.8759 0.666748 25.6667V7C0.666748 4.79086 2.45761 2.99999 4.66675 2.99999H6.00008V1.66666ZM19.3334 5.66666V7C19.3334 7.73637 19.9303 8.33333 20.6667 8.33333C21.4031 8.33333 22.0001 7.73637 22.0001 7V5.66666H23.3334C24.0698 5.66666 24.6667 6.26362 24.6667 7V11H3.33341V7C3.33341 6.26362 3.93037 5.66666 4.66675 5.66666H6.00008V7C6.00008 7.73637 6.59704 8.33333 7.33341 8.33333C8.06979 8.33333 8.66675 7.73637 8.66675 7V5.66666H19.3334ZM3.33341 13.6667V25.6667C3.33341 26.4031 3.93037 27 4.66675 27H23.3334C24.0698 27 24.6667 26.4031 24.6667 25.6667V13.6667H3.33341Z" fill="#242424"/>
</svg>
