<svg width="21" height="15" viewBox="0 0 21 15" fill="none" xmlns="http://www.w3.org/2000/svg">
<path d="M0.5 2.5C0.5 1.39543 1.39543 0.5 2.5 0.5H18.5C19.6046 0.5 20.5 1.39543 20.5 2.5H0.5Z" fill="#FF575B"/>
<path d="M20.5 2.5H0.5V4.5H20.5V2.5Z" fill="#FF8353"/>
<path d="M20.5 4.5H0.5V6.5H20.5V4.5Z" fill="#FABA2C"/>
<path d="M20.5 6.5H0.5V8.5H20.5V6.5Z" fill="#7AC74D"/>
<path d="M20.5 8.5H0.5V10.5H20.5V8.5Z" fill="#00B0FF"/>
<path d="M20.5 10.5H0.5V12.5H20.5V10.5Z" fill="#B99FE4"/>
<path d="M0.5 12.5H20.5C20.5 13.6046 19.6046 14.5 18.5 14.5H2.5C1.39543 14.5 0.5 13.6046 0.5 12.5Z" fill="#E39BD1"/>
</svg>
