<svg width="36" height="36" fill="none" xmlns="http://www.w3.org/2000/svg"><g clip-path="url(#a)" fill="#fff"><path d="M18 27a9 9 0 1 0 0-18 9 9 0 0 0 0 18Z"/><path fill-rule="evenodd" clip-rule="evenodd" d="M6.75 18c0-1.25-1-2.25-2.25-2.25H2.25a2.25 2.25 0 1 0 0 4.5H4.5c1.24 0 2.25-1 2.25-2.25ZM6.86 25.95l-1.59 1.6a2.25 2.25 0 1 0 3.18 3.18l1.6-1.6a2.25 2.25 0 1 0-3.19-3.18ZM18 29.25c-1.24 0-2.25 1-2.25 2.25v2.25a2.25 2.25 0 1 0 4.5 0V31.5c0-1.24-1-2.25-2.25-2.25ZM29.14 25.96a2.25 2.25 0 1 0-3.18 3.18l1.59 1.59a2.25 2.25 0 1 0 3.18-3.19l-1.6-1.58ZM33.75 15.75H31.5a2.24 2.24 0 1 0 0 4.5h2.25a2.24 2.24 0 1 0 0-4.5ZM29.14 10.05l1.59-1.6a2.24 2.24 0 1 0-3.18-3.18l-1.6 1.6a2.24 2.24 0 1 0 3.19 3.18ZM18 6.75c1.24 0 2.25-1 2.25-2.25V2.25a2.25 2.25 0 1 0-4.5 0V4.5c0 1.24 1 2.25 2.25 2.25ZM6.87 10.04c.87.88 2.3.88 3.18 0 .88-.87.88-2.3 0-3.18l-1.6-1.59a2.25 2.25 0 0 0-3.18 3.18l1.6 1.6Z"/></g><defs><clipPath id="a"><path fill="#fff" d="M0 0h36v36H0z"/></clipPath></defs></svg>