<svg xmlns="http://www.w3.org/2000/svg" width="189" height="190" fill="none"><path fill="#5255EB" d="M94.5 173.75c-10.763 0-20.934-2.067-30.516-6.202-9.58-4.134-17.948-9.778-25.101-16.931-7.153-7.153-12.797-15.52-16.931-25.101-4.135-9.582-6.202-19.754-6.202-30.516 0-10.894 2.067-21.098 6.202-30.614 4.134-9.516 9.778-17.85 16.93-25.003 7.154-7.153 15.521-12.797 25.102-16.931 9.582-4.135 19.753-6.202 30.516-6.202 10.894 0 21.098 2.067 30.614 6.202 9.516 4.134 17.85 9.778 25.003 16.93 7.153 7.154 12.797 15.488 16.931 25.004 4.135 9.516 6.202 19.72 6.202 30.614 0 10.762-2.067 20.934-6.202 30.516-4.134 9.581-9.778 17.948-16.931 25.101-7.153 7.153-15.487 12.797-25.003 16.931-9.516 4.135-19.72 6.202-30.614 6.202Zm0-16.144a99.943 99.943 0 0 0 8.859-14.765c2.494-5.119 4.529-10.566 6.104-16.341H79.538c1.575 5.775 3.609 11.222 6.103 16.341a100.015 100.015 0 0 0 8.859 14.765Zm-20.475-3.15a109.087 109.087 0 0 1-6.202-13.486 115.595 115.595 0 0 1-4.43-14.47h-23.23c3.806 6.562 8.564 12.272 14.273 17.128 5.71 4.856 12.239 8.466 19.589 10.828Zm40.95 0c7.35-2.362 13.88-5.972 19.589-10.828 5.709-4.856 10.467-10.566 14.273-17.128h-23.231a115.693 115.693 0 0 1-4.429 14.47 109.03 109.03 0 0 1-6.202 13.486ZM33.469 110.75h26.775c-.394-2.625-.69-5.217-.886-7.777A103.986 103.986 0 0 1 59.063 95c0-2.756.098-5.414.295-7.973.197-2.56.492-5.152.886-7.777H33.469a67.377 67.377 0 0 0-1.477 7.777A62.685 62.685 0 0 0 31.5 95c0 2.756.164 5.414.492 7.973.328 2.56.82 5.152 1.477 7.777Zm42.525 0h37.012c.394-2.625.689-5.217.886-7.777.197-2.559.296-5.217.296-7.973 0-2.756-.099-5.414-.296-7.973-.197-2.56-.492-5.152-.886-7.777H75.994c-.394 2.625-.69 5.217-.886 7.777-.197 2.559-.296 5.217-.296 7.973 0 2.756.099 5.414.296 7.973.197 2.56.492 5.152.886 7.777Zm52.762 0h26.775a67.192 67.192 0 0 0 1.477-7.777c.328-2.559.492-5.217.492-7.973 0-2.756-.164-5.414-.492-7.973a67.21 67.21 0 0 0-1.477-7.777h-26.775c.394 2.625.689 5.217.886 7.777.197 2.559.296 5.217.296 7.973 0 2.756-.099 5.414-.296 7.973a108.44 108.44 0 0 1-.886 7.777Zm-3.15-47.25h23.231c-3.806-6.563-8.564-12.272-14.273-17.128s-12.239-8.466-19.589-10.828a109.083 109.083 0 0 1 6.202 13.486 115.744 115.744 0 0 1 4.429 14.47Zm-46.069 0h29.926c-1.575-5.775-3.61-11.222-6.104-16.34A99.908 99.908 0 0 0 94.5 32.393a99.98 99.98 0 0 0-8.86 14.765c-2.493 5.12-4.528 10.566-6.103 16.341Zm-39.375 0h23.232a115.645 115.645 0 0 1 4.43-14.47 109.14 109.14 0 0 1 6.201-13.486c-7.35 2.362-13.88 5.972-19.59 10.828C48.728 51.228 43.97 56.938 40.163 63.5Z"/></svg>
