<svg width="30" height="30" viewBox="0 0 30 30" fill="none" xmlns="http://www.w3.org/2000/svg">
<g clip-path="url(#clip0_10_19)">
<path d="M21.25 5V2.585C21.2498 2.46614 21.2835 2.34968 21.3472 2.24929C21.4108 2.14891 21.5018 2.06876 21.6094 2.01824C21.717 1.96772 21.8367 1.94893 21.9546 1.96408C22.0725 1.97923 22.1837 2.02768 22.275 2.10375L27.425 6.395C27.5237 6.4773 27.5946 6.58803 27.6281 6.71209C27.6616 6.83616 27.656 6.96753 27.6122 7.08832C27.5683 7.20911 27.4883 7.31345 27.383 7.38712C27.2777 7.46078 27.1523 7.5002 27.0238 7.5H2.5V5H21.25ZM2.5 22.5H27.5V25H2.5V22.5ZM2.5 13.75H27.5V16.25H2.5V13.75Z" fill="white"/>
</g>
<defs>
<clipPath id="clip0_10_19">
<rect width="30" height="30" fill="white"/>
</clipPath>
</defs>
</svg>
