<svg width="30" height="32" viewBox="0 0 30 32" fill="none" xmlns="http://www.w3.org/2000/svg">
<path d="M26.1039 0.490604C23.4908 -0.727832 20.3897 0.400291 19.1708 3.01404C18.9011 3.59247 18.7475 4.19578 18.6995 4.7976C18.1316 4.67697 17.5416 4.71578 16.9851 4.91841C16.3873 5.13622 13.9626 7.17415 10.3548 10.0318L7.34329 8.62752L7.78423 7.68184C8.02773 7.15959 7.80173 6.53878 7.27954 6.29522C6.75735 6.05184 6.13648 6.27765 5.89292 6.79997L5.45198 7.74559L4.5063 7.30465C3.98411 7.06122 3.36324 7.28709 3.11967 7.80928C2.87617 8.33159 3.10205 8.9524 3.62436 9.19596L4.57005 9.6369L4.12911 10.5826C3.88561 11.1048 4.11161 11.7256 4.6338 11.9692C5.15642 12.2129 5.77698 11.9866 6.02042 11.4645L6.46135 10.5188L8.52135 11.4795C7.41948 12.5972 7.30323 14.3702 8.29704 15.6065L12.894 21.4129L11.5082 24.3848L2.36692 20.1222C1.84468 19.8788 1.22393 20.1046 0.980303 20.6269C0.736803 21.1492 0.962803 21.77 1.48499 22.0136C18.284 29.8471 13.5703 27.6294 22.1044 31.7027C22.1073 31.7041 22.1101 31.7054 22.1129 31.7068C23.6773 32.4364 25.5434 31.7569 26.2728 30.1927C26.5163 29.6705 26.2904 29.0497 25.7681 28.806C25.2457 28.5627 24.625 28.7884 24.3814 29.3107C24.1389 29.831 23.5193 30.0574 22.9984 29.8172L17.1778 27.039L19.3829 22.3102C19.3842 22.3076 19.3855 22.3048 19.3867 22.3021C19.8893 21.2243 19.7422 19.9761 19.003 19.0446L16.5163 15.9111L17.0718 15.4668C18.2137 15.9993 18.3825 16.0779 22.5369 18.0151C24.1035 18.7456 25.9691 18.0618 26.6968 16.501C27.4259 14.9373 26.7465 13.0704 25.1826 12.3413L22.5862 11.1305L22.2343 10.1637C24.7211 11.0061 27.4924 9.85746 28.6273 7.42365C29.8457 4.81047 28.7174 1.70923 26.1039 0.490604ZM17.3685 20.3416C17.5995 20.6328 17.6695 21.0319 17.4953 21.4204L15.2906 26.1486L13.3993 25.2667L15.0573 21.7111C15.2241 21.3533 15.1748 20.932 14.9297 20.6225C14.9268 20.6189 9.92741 14.304 9.92447 14.3005C9.57541 13.8679 9.64747 13.2181 10.1113 12.8501C10.1585 12.8126 10.3421 12.6678 10.6193 12.4578C12.6842 13.4207 13.0722 13.6016 14.9615 14.4826L14.4012 14.9307C13.9524 15.2897 13.8784 15.9439 14.2357 16.3941L17.3685 20.3416ZM24.3009 14.2326C24.8184 14.4739 25.0479 15.0997 24.8056 15.6191V15.6192C24.564 16.1376 23.9376 16.3658 23.419 16.1239L19.6365 14.3601C19.386 14.2433 19.195 14.0359 19.0837 13.7598L18.8568 13.1365C18.6135 12.4681 17.7855 12.2333 17.2278 12.676L16.7826 13.0293C16.4472 12.8729 14.69 12.0535 12.4676 11.0172C14.0687 9.73783 17.1673 7.23534 17.7579 6.86003C18.0026 6.78697 18.2645 6.80684 18.5019 6.91765C18.7585 7.03734 18.9522 7.24709 19.0473 7.50828L20.7733 12.2505C20.8679 12.5105 21.0619 12.7223 21.3128 12.8393L24.3009 14.2326ZM26.7359 6.54159C26.0049 8.10934 24.1441 8.78696 22.5762 8.05571C21.0119 7.32634 20.3327 5.46022 21.0621 3.89591C21.7903 2.33435 23.6474 1.64766 25.2219 2.38185C26.7899 3.1131 27.4672 4.97353 26.7359 6.54159Z" fill="black"/>
</svg>
