<svg width="29" height="28" viewBox="0 0 29 28" fill="none" xmlns="http://www.w3.org/2000/svg">
<path d="M28.0335 27.0666H25.7001V12.6C25.7001 12.3424 25.4915 12.1333 25.2334 12.1333H22.4334C22.1754 12.1333 21.9668 12.3424 21.9668 12.6V27.0666H21.0334V19.1333C21.0334 18.8758 20.8249 18.6667 20.5668 18.6667H17.8055C17.5474 18.6667 17.3388 18.8758 17.3388 19.1333V27.0667H16.3668V16.3333C16.3668 16.0758 16.1582 15.8667 15.9001 15.8667H13.1001C12.842 15.8667 12.6335 16.0758 12.6335 16.3333V27.0667H11.7V18.2C11.7 17.9424 11.4915 17.7333 11.2334 17.7333H8.43338C8.17531 17.7333 7.96673 17.9424 7.96673 18.2V27.0666H7.03338V21.9333C7.03338 21.6757 6.8248 21.4666 6.56673 21.4666H3.76672C3.50864 21.4666 3.30007 21.6757 3.30007 21.9333V27.0666H0.96665C0.708579 27.0666 0.5 27.2757 0.5 27.5333C0.5 27.7909 0.708579 28 0.96665 28H3.76666C4.02473 28 4.23331 27.7909 4.23331 27.5333V22.4H6.10002V27.5333C6.10002 27.7909 6.3086 28 6.56667 28H8.43333C8.6914 28 8.89998 27.7909 8.89998 27.5333V18.6666H10.7666V27.5333C10.7666 27.7909 10.9752 27.9999 11.2333 27.9999H13.1C13.3581 27.9999 13.5667 27.7909 13.5667 27.5333V16.8H15.4334V27.5333C15.4334 27.7909 15.6419 28 15.9 28H17.8054C18.0635 28 18.2721 27.7909 18.2721 27.5333V19.6H20.1001V27.5333C20.1001 27.7909 20.3087 28 20.5667 28H22.4334C22.6915 28 22.9 27.7909 22.9 27.5333V13.0666H24.7667V27.5333C24.7667 27.7909 24.9753 27.9999 25.2333 27.9999H28.0333C28.2914 27.9999 28.5 27.7909 28.5 27.5333C28.5 27.2757 28.2915 27.0666 28.0335 27.0666Z" fill="white"/>
<path d="M2.36666 17.7333C3.39615 17.7333 4.23331 16.8961 4.23331 15.8667C4.23331 15.6464 4.18803 15.4383 4.11803 15.2418L13.2862 6.0737C13.6138 6.35605 14.0348 6.53335 14.5 6.53335C14.8463 6.53335 15.1664 6.43256 15.4445 6.26784L17.5655 8.38884C17.4012 8.66698 17.3 8.98712 17.3 9.33335C17.3 10.3628 18.1372 11.2 19.1667 11.2C20.1962 11.2 21.0333 10.3628 21.0333 9.33335C21.0333 8.988 20.9325 8.66884 20.7692 8.39114L25.6907 3.46872C25.9688 3.633 26.2885 3.7333 26.6333 3.7333C27.6628 3.7333 28.5 2.89609 28.5 1.86665C28.5001 0.837211 27.6629 0 26.6335 0C25.604 0 24.7668 0.837211 24.7668 1.86665C24.7668 2.212 24.8676 2.53116 25.0309 2.80886L20.109 7.73128C19.8313 7.567 19.5116 7.4667 19.1668 7.4667C18.8228 7.4667 18.5041 7.56656 18.2269 7.72991L16.1031 5.60656C16.2665 5.32935 16.3668 5.01063 16.3668 4.6667C16.3668 3.63721 15.5296 2.80005 14.5001 2.80005C13.4706 2.80005 12.6335 3.63727 12.6335 4.6667C12.6335 4.88698 12.6787 5.09512 12.7487 5.29156L3.5805 14.4596C3.25287 14.1773 2.83194 14 2.36666 14C1.33721 14 0.5 14.8372 0.5 15.8666C0.5 16.8961 1.33721 17.7333 2.36666 17.7333ZM26.6335 0.933351C27.1477 0.933351 27.5668 1.35193 27.5668 1.8667C27.5668 2.38142 27.1477 2.80005 26.6335 2.80005C26.3787 2.80005 26.1481 2.69691 25.9797 2.53127C25.9778 2.52941 25.9773 2.52662 25.9755 2.52476C25.9736 2.5229 25.9708 2.52241 25.9689 2.52055C25.8032 2.35205 25.7001 2.12155 25.7001 1.86676C25.7001 1.35193 26.1187 0.933351 26.6335 0.933351ZM19.1667 8.4C19.681 8.4 20.1001 8.81858 20.1001 9.33335C20.1001 9.84807 19.681 10.2667 19.1667 10.2667C18.652 10.2667 18.2334 9.84812 18.2334 9.33335C18.2334 8.81858 18.652 8.4 19.1667 8.4ZM14.5001 3.73335C15.0148 3.73335 15.4334 4.15193 15.4334 4.6667C15.4334 5.18142 15.0148 5.60005 14.5001 5.60005C13.9853 5.60005 13.5667 5.18148 13.5667 4.6667C13.5667 4.15193 13.9853 3.73335 14.5001 3.73335ZM2.36666 14.9333C2.88094 14.9333 3.30001 15.3519 3.30001 15.8667C3.30001 16.3814 2.88094 16.8001 2.36666 16.8001C1.85194 16.8001 1.4333 16.3815 1.4333 15.8667C1.43336 15.3519 1.85194 14.9333 2.36666 14.9333Z" fill="white"/>
</svg>
